<?xml version="1.0" encoding="UTF-8"?>
<svg xmlns="http://www.w3.org/2000/svg" width="512" height="512" viewBox="0 0 512 512"><g><path d="M476,32H36A28.031,28.031,0,0,0,8,60V388a28.031,28.031,0,0,0,28,28H188.18l-9.6,24H136a8,8,0,0,0-8,8v24a8,8,0,0,0,8,8H376a8,8,0,0,0,8-8V448a8,8,0,0,0-8-8H333.42l-9.6-24H476a28.031,28.031,0,0,0,28-28V60A28.031,28.031,0,0,0,476,32ZM368,456v8H144v-8ZM195.82,440l9.6-24H306.58l9.6,24ZM488,388a12.01,12.01,0,0,1-12,12H36a12.01,12.01,0,0,1-12-12V368H488ZM318.35,200.28c12.94,0,32.94-2.34,57.65-12.79V216a32,32,0,0,1-64,0V200.08C313.88,200.2,315.99,200.28,318.35,200.28ZM312,184.04V184a32.03,32.03,0,0,1,32-32c12.65,0,23.86,8.04,29.01,19.34-19.84,8.84-36.12,11.77-46.71,12.62A92.371,92.371,0,0,1,312,184.04Zm40,79.28V272a8,8,0,0,1-16,0v-8.68a47.4,47.4,0,0,0,16,0ZM344,296a24.031,24.031,0,0,0,22.62-16H376a32.03,32.03,0,0,1,32,32v40H392V320a8,8,0,0,0-16,0v32H312V320a8,8,0,0,0-16,0v32H280V312a32.03,32.03,0,0,1,32-32h9.38A24.031,24.031,0,0,0,344,296Zm144,56H424V312a48.051,48.051,0,0,0-48-48h-8v-6.46A48.012,48.012,0,0,0,392,216V184c0-.23-.01-.45-.03-.68a49.189,49.189,0,0,0-13.93-32.66A47.054,47.054,0,0,0,344,136a48.051,48.051,0,0,0-48,48v32a48.012,48.012,0,0,0,24,41.54V264h-8a48.051,48.051,0,0,0-48,48v40H24V60A12.01,12.01,0,0,1,36,48H476a12.01,12.01,0,0,1,12,12Z"/><path d="M264,192a8,8,0,0,0,8-8V80a8,8,0,0,0-8-8H96a8,8,0,0,0-8,8V184a8,8,0,0,0,8,8h84.686l45.657,45.657A8,8,0,0,0,240,232V192Zm-32-16a8,8,0,0,0-8,8v28.686l-34.343-34.343A8,8,0,0,0,184,176H104V88H256v88Z"/><circle cx="176" cy="128" r="8"/><circle cx="144" cy="128" r="8"/><circle cx="208" cy="128" r="8"/></g></svg>
